<svg width="332" height="330" viewBox="0 0 332 330" fill="none" xmlns="http://www.w3.org/2000/svg">
<g clip-path="url(#clip0_620_1253)">
<path d="M299.674 31.7143V0L200 0L231.715 31.7143H299.674Z" fill="#9500FF"/>
<path d="M331.389 31.7143L299.674 0V31.7143H331.389Z" fill="#9814F6"/>
<path d="M231.715 31.7143L200.001 0V99.6735H231.715V31.7143Z" fill="#9500FF"/>
<path d="M200.001 99.6719L231.715 131.386V99.6719H200.001Z" fill="#8D03EF"/>
<path d="M299.674 99.6721L331.389 131.386V31.7129L299.674 0.386719V99.6721Z" fill="#9814F6"/>
<path d="M299.674 99.6721L331.389 131.386V31.7129L299.674 0.386719V99.6721Z" fill="url(#paint0_linear_620_1253)"/>
<path d="M299.5 98.8867L200 99.6729L231.715 131.387H331.389L299.5 98.8867Z" fill="#8D03EF"/>
<path d="M299.5 98.8867L200 99.6729L231.715 131.387H331.389L299.5 98.8867Z" fill="url(#paint1_linear_620_1253)"/>
<path d="M300 99.3867V0.386719L200 0.386719V99.3867H300Z" fill="#9500FF"/>
<path d="M300 99.3867V0.386719L200 0.386719V99.3867H300Z" fill="url(#paint2_linear_620_1253)"/>
</g>
<g clip-path="url(#clip1_620_1253)">
<path d="M99.6738 31.7143V0L0.000356893 0L31.7146 31.7143H99.6738Z" fill="#9500FF"/>
<path d="M131.389 31.7143L99.6744 0V31.7143H131.389Z" fill="#9814F6"/>
<path d="M31.7148 31.7143L0.000562651 0L0.000562651 99.6735H31.7148L31.7148 31.7143Z" fill="#9500FF"/>
<path d="M0.000562651 99.6719L31.7148 131.386V99.6719H0.000562651Z" fill="#8D03EF"/>
<path d="M99.6744 99.6721L131.389 131.386V31.7129L99.6744 0.386719V99.6721Z" fill="#9814F6"/>
<path d="M99.6744 99.6721L131.389 131.386V31.7129L99.6744 0.386719V99.6721Z" fill="url(#paint3_linear_620_1253)"/>
<path d="M99.5 98.8867L-7.42741e-06 99.6729L31.7152 131.387H131.389L99.5 98.8867Z" fill="#8D03EF"/>
<path d="M99.5 98.8867L-7.42741e-06 99.6729L31.7152 131.387H131.389L99.5 98.8867Z" fill="url(#paint4_linear_620_1253)"/>
<path d="M100 99.3867V0.386719L-1.66893e-06 0.386719V99.3867H100Z" fill="#9500FF"/>
<path d="M100 99.3867V0.386719L-1.66893e-06 0.386719V99.3867H100Z" fill="url(#paint5_linear_620_1253)"/>
</g>
<g clip-path="url(#clip2_620_1253)">
<path d="M199.369 131.019V99.3047H99.6957L131.41 131.019H199.369Z" fill="#9500FF"/>
<path d="M231.084 131.019L199.37 99.3047V131.019H231.084Z" fill="#9814F6"/>
<path d="M131.41 131.019L99.6959 99.3047V198.978H131.41V131.019Z" fill="#9500FF"/>
<path d="M99.6959 198.977L131.41 230.691V198.977H99.6959Z" fill="#8D03EF"/>
<path d="M199.37 198.977L231.084 230.691V131.018L199.37 99.6914V198.977Z" fill="#9814F6"/>
<path d="M199.37 198.977L231.084 230.691V131.018L199.37 99.6914V198.977Z" fill="url(#paint6_linear_620_1253)"/>
<path d="M199.195 198.191L99.6953 198.978L131.411 230.692H231.084L199.195 198.191Z" fill="#8D03EF"/>
<path d="M199.195 198.191L99.6953 198.978L131.411 230.692H231.084L199.195 198.191Z" fill="url(#paint7_linear_620_1253)"/>
<path d="M199.695 198.691V99.6914H99.6953V198.691H199.695Z" fill="#9500FF"/>
<path d="M199.695 198.691V99.6914H99.6953V198.691H199.695Z" fill="url(#paint8_linear_620_1253)"/>
</g>
<g clip-path="url(#clip3_620_1253)">
<path d="M299.674 229.714V198H200L231.715 229.714H299.674Z" fill="#9500FF"/>
<path d="M331.389 229.714L299.674 198V229.714H331.389Z" fill="#9814F6"/>
<path d="M231.715 229.714L200.001 198V297.673H231.715V229.714Z" fill="#9500FF"/>
<path d="M200.001 297.672L231.715 329.386V297.672H200.001Z" fill="#8D03EF"/>
<path d="M299.674 297.672L331.389 329.386V229.713L299.674 198.387V297.672Z" fill="#9814F6"/>
<path d="M299.674 297.672L331.389 329.386V229.713L299.674 198.387V297.672Z" fill="url(#paint9_linear_620_1253)"/>
<path d="M299.5 296.887L200 297.673L231.715 329.387H331.389L299.5 296.887Z" fill="#8D03EF"/>
<path d="M299.5 296.887L200 297.673L231.715 329.387H331.389L299.5 296.887Z" fill="url(#paint10_linear_620_1253)"/>
<path d="M300 297.387V198.387H200V297.387H300Z" fill="#9500FF"/>
<path d="M300 297.387V198.387H200V297.387H300Z" fill="url(#paint11_linear_620_1253)"/>
</g>
<defs>
<linearGradient id="paint0_linear_620_1253" x1="299.674" y1="0.386717" x2="383.554" y2="65.7118" gradientUnits="userSpaceOnUse">
<stop stop-color="#9500FF"/>
<stop offset="1" stop-color="#35005B"/>
</linearGradient>
<linearGradient id="paint1_linear_620_1253" x1="200" y1="99.6729" x2="203.126" y2="141.328" gradientUnits="userSpaceOnUse">
<stop stop-color="#9500FF"/>
<stop offset="1" stop-color="#35005B"/>
</linearGradient>
<linearGradient id="paint2_linear_620_1253" x1="200" y1="0.386717" x2="236.761" y2="119.837" gradientUnits="userSpaceOnUse">
<stop stop-color="#9500FF"/>
<stop offset="1" stop-color="#35005B"/>
</linearGradient>
<linearGradient id="paint3_linear_620_1253" x1="99.6744" y1="0.386717" x2="183.554" y2="65.7118" gradientUnits="userSpaceOnUse">
<stop stop-color="#9500FF"/>
<stop offset="1" stop-color="#35005B"/>
</linearGradient>
<linearGradient id="paint4_linear_620_1253" x1="1.64429e-06" y1="99.6729" x2="3.12555" y2="141.328" gradientUnits="userSpaceOnUse">
<stop stop-color="#9500FF"/>
<stop offset="1" stop-color="#35005B"/>
</linearGradient>
<linearGradient id="paint5_linear_620_1253" x1="3.18755e-06" y1="0.386717" x2="36.7607" y2="119.837" gradientUnits="userSpaceOnUse">
<stop stop-color="#9500FF"/>
<stop offset="1" stop-color="#35005B"/>
</linearGradient>
<linearGradient id="paint6_linear_620_1253" x1="199.37" y1="99.6914" x2="283.249" y2="165.016" gradientUnits="userSpaceOnUse">
<stop stop-color="#9500FF"/>
<stop offset="1" stop-color="#35005B"/>
</linearGradient>
<linearGradient id="paint7_linear_620_1253" x1="99.6953" y1="198.978" x2="102.821" y2="240.633" gradientUnits="userSpaceOnUse">
<stop stop-color="#9500FF"/>
<stop offset="1" stop-color="#35005B"/>
</linearGradient>
<linearGradient id="paint8_linear_620_1253" x1="99.6953" y1="99.6914" x2="136.456" y2="219.142" gradientUnits="userSpaceOnUse">
<stop stop-color="#9500FF"/>
<stop offset="1" stop-color="#35005B"/>
</linearGradient>
<linearGradient id="paint9_linear_620_1253" x1="299.674" y1="198.387" x2="383.554" y2="263.712" gradientUnits="userSpaceOnUse">
<stop stop-color="#9500FF"/>
<stop offset="1" stop-color="#35005B"/>
</linearGradient>
<linearGradient id="paint10_linear_620_1253" x1="200" y1="297.673" x2="203.126" y2="339.328" gradientUnits="userSpaceOnUse">
<stop stop-color="#9500FF"/>
<stop offset="1" stop-color="#35005B"/>
</linearGradient>
<linearGradient id="paint11_linear_620_1253" x1="200" y1="198.387" x2="236.761" y2="317.837" gradientUnits="userSpaceOnUse">
<stop stop-color="#9500FF"/>
<stop offset="1" stop-color="#35005B"/>
</linearGradient>
<clipPath id="clip0_620_1253">
<rect width="131.388" height="131.388" fill="white" transform="matrix(0 1 -1 0 331.389 0)"/>
</clipPath>
<clipPath id="clip1_620_1253">
<rect width="131.388" height="131.388" fill="white" transform="matrix(0 1 -1 0 131.389 0)"/>
</clipPath>
<clipPath id="clip2_620_1253">
<rect width="131.388" height="131.388" fill="white" transform="matrix(0 1 -1 0 231.084 99.3047)"/>
</clipPath>
<clipPath id="clip3_620_1253">
<rect width="131.388" height="131.388" fill="white" transform="matrix(0 1 -1 0 331.389 198)"/>
</clipPath>
</defs>
</svg>
