<svg width="295" height="342" viewBox="0 0 295 342" fill="none" xmlns="http://www.w3.org/2000/svg">
<g clip-path="url(#clip0_562_1226)">
<path d="M153.541 234.761L131.115 257.186L201.595 327.666L201.595 282.815L153.541 234.761Z" fill="#9500FF"/>
<path d="M131.115 212.335V257.186L153.54 234.761L131.115 212.335Z" fill="#9500FF"/>
<path d="M201.595 282.816L201.595 327.666L272.075 257.187L249.65 234.761L201.595 282.816Z" fill="#9500FF"/>
<path d="M272.076 257.186V212.335L249.65 234.761L272.076 257.186Z" fill="#9500FF"/>
<path d="M200.461 144.591L200.461 186.239L132.504 254.196L132.249 212.803L200.461 144.591Z" fill="url(#paint0_linear_562_1226)" stroke="url(#paint1_linear_562_1226)" stroke-width="2.26531"/>
<path d="M201.162 187.384L272.075 257.185L272.074 212.333L201.595 141.854L201.162 187.384Z" fill="url(#paint2_linear_562_1226)"/>
<path d="M201.162 188.281L270.27 257.39L201.869 325.791L132.76 256.683L201.162 188.281Z" fill="url(#paint3_linear_562_1226)" stroke="url(#paint4_linear_562_1226)" stroke-width="2.26531"/>
</g>
<g clip-path="url(#clip1_562_1226)">
<path d="M11.6871 235.742L-10.7383 258.167L59.7415 328.647L59.7415 283.796L11.6871 235.742Z" fill="#9500FF"/>
<path d="M-10.7387 213.316V258.166L11.6867 235.741L-10.7387 213.316Z" fill="#9500FF"/>
<path d="M59.7418 283.796L59.7418 328.647L130.222 258.167L107.796 235.742L59.7418 283.796Z" fill="#9500FF"/>
<path d="M130.222 258.166V213.316L107.797 235.741L130.222 258.166Z" fill="#9500FF"/>
<path d="M58.6079 145.571L58.6072 187.219L-9.34963 255.176L-9.60444 213.784L58.6079 145.571Z" fill="url(#paint5_linear_562_1226)" stroke="url(#paint6_linear_562_1226)" stroke-width="2.26531"/>
<path d="M59.3085 188.364L130.221 258.165L130.221 213.314L59.741 142.834L59.3085 188.364Z" fill="url(#paint7_linear_562_1226)"/>
<path d="M59.3083 189.261L128.417 258.37L60.0154 326.772L-9.09327 257.663L59.3083 189.261Z" fill="url(#paint8_linear_562_1226)" stroke="url(#paint9_linear_562_1226)" stroke-width="2.26531"/>
</g>
<g clip-path="url(#clip2_562_1226)">
<path d="M-11.9066 258.874V214.023L-34.332 236.448L-11.9066 258.874Z" fill="#9500FF"/>
<path d="M-82.8204 189.071L-11.9074 258.872L-11.9081 214.021L-82.3879 143.541L-82.8204 189.071Z" fill="url(#paint10_linear_562_1226)"/>
</g>
<g clip-path="url(#clip3_562_1226)">
<path d="M10.9801 93.6126L-11.4453 116.038L59.0345 186.518L59.0345 141.667L10.9801 93.6126Z" fill="#9500FF"/>
<path d="M-11.4457 71.1868V116.038L10.9797 93.6122L-11.4457 71.1868Z" fill="#9500FF"/>
<path d="M59.0348 141.667L59.0348 186.518L129.515 116.038L107.089 93.6129L59.0348 141.667Z" fill="#9500FF"/>
<path d="M129.515 116.038V71.1868L107.09 93.6122L129.515 116.038Z" fill="#9500FF"/>
<path d="M57.9008 3.4423L57.9002 45.0905L-10.0567 113.047L-10.3115 71.6546L57.9008 3.4423Z" fill="url(#paint11_linear_562_1226)" stroke="url(#paint12_linear_562_1226)" stroke-width="2.26531"/>
<path d="M58.6014 46.2351L129.514 116.036L129.514 71.1849L59.034 0.705154L58.6014 46.2351Z" fill="url(#paint13_linear_562_1226)"/>
<path d="M58.6012 47.1325L127.71 116.241L59.3083 184.643L-9.80031 115.534L58.6012 47.1325Z" fill="url(#paint14_linear_562_1226)" stroke="url(#paint15_linear_562_1226)" stroke-width="2.26531"/>
</g>
<defs>
<linearGradient id="paint0_linear_562_1226" x1="131.388" y1="256.913" x2="118.268" y2="151.409" gradientUnits="userSpaceOnUse">
<stop stop-color="#9500FF"/>
<stop offset="1" stop-color="#35005B"/>
</linearGradient>
<linearGradient id="paint1_linear_562_1226" x1="131.388" y1="256.913" x2="118.268" y2="151.409" gradientUnits="userSpaceOnUse">
<stop stop-color="#9500FF"/>
<stop offset="1" stop-color="#35005B"/>
</linearGradient>
<linearGradient id="paint2_linear_562_1226" x1="272.075" y1="257.185" x2="299.319" y2="225.52" gradientUnits="userSpaceOnUse">
<stop stop-color="#9500FF"/>
<stop offset="1" stop-color="#35005B"/>
</linearGradient>
<linearGradient id="paint3_linear_562_1226" x1="201.869" y1="327.393" x2="260.339" y2="216.935" gradientUnits="userSpaceOnUse">
<stop stop-color="#9500FF"/>
<stop offset="1" stop-color="#35005B"/>
</linearGradient>
<linearGradient id="paint4_linear_562_1226" x1="201.869" y1="327.393" x2="260.339" y2="216.935" gradientUnits="userSpaceOnUse">
<stop stop-color="#9500FF"/>
<stop offset="1" stop-color="#35005B"/>
</linearGradient>
<linearGradient id="paint5_linear_562_1226" x1="-10.4652" y1="257.893" x2="-23.5854" y2="152.389" gradientUnits="userSpaceOnUse">
<stop stop-color="#9500FF"/>
<stop offset="1" stop-color="#35005B"/>
</linearGradient>
<linearGradient id="paint6_linear_562_1226" x1="-10.4652" y1="257.893" x2="-23.5854" y2="152.389" gradientUnits="userSpaceOnUse">
<stop stop-color="#9500FF"/>
<stop offset="1" stop-color="#35005B"/>
</linearGradient>
<linearGradient id="paint7_linear_562_1226" x1="130.221" y1="258.165" x2="157.466" y2="226.501" gradientUnits="userSpaceOnUse">
<stop stop-color="#9500FF"/>
<stop offset="1" stop-color="#35005B"/>
</linearGradient>
<linearGradient id="paint8_linear_562_1226" x1="60.0154" y1="328.374" x2="118.486" y2="217.916" gradientUnits="userSpaceOnUse">
<stop stop-color="#9500FF"/>
<stop offset="1" stop-color="#35005B"/>
</linearGradient>
<linearGradient id="paint9_linear_562_1226" x1="60.0154" y1="328.374" x2="118.486" y2="217.916" gradientUnits="userSpaceOnUse">
<stop stop-color="#9500FF"/>
<stop offset="1" stop-color="#35005B"/>
</linearGradient>
<linearGradient id="paint10_linear_562_1226" x1="-11.9074" y1="258.872" x2="15.337" y2="227.208" gradientUnits="userSpaceOnUse">
<stop stop-color="#9500FF"/>
<stop offset="1" stop-color="#35005B"/>
</linearGradient>
<linearGradient id="paint11_linear_562_1226" x1="-11.1723" y1="115.764" x2="-24.2924" y2="10.2604" gradientUnits="userSpaceOnUse">
<stop stop-color="#9500FF"/>
<stop offset="1" stop-color="#35005B"/>
</linearGradient>
<linearGradient id="paint12_linear_562_1226" x1="-11.1723" y1="115.764" x2="-24.2924" y2="10.2604" gradientUnits="userSpaceOnUse">
<stop stop-color="#9500FF"/>
<stop offset="1" stop-color="#35005B"/>
</linearGradient>
<linearGradient id="paint13_linear_562_1226" x1="129.514" y1="116.036" x2="156.759" y2="84.3717" gradientUnits="userSpaceOnUse">
<stop stop-color="#9500FF"/>
<stop offset="1" stop-color="#35005B"/>
</linearGradient>
<linearGradient id="paint14_linear_562_1226" x1="59.3083" y1="186.245" x2="117.779" y2="75.787" gradientUnits="userSpaceOnUse">
<stop stop-color="#9500FF"/>
<stop offset="1" stop-color="#35005B"/>
</linearGradient>
<linearGradient id="paint15_linear_562_1226" x1="59.3083" y1="186.245" x2="117.779" y2="75.787" gradientUnits="userSpaceOnUse">
<stop stop-color="#9500FF"/>
<stop offset="1" stop-color="#35005B"/>
</linearGradient>
<clipPath id="clip0_562_1226">
<rect width="131.388" height="131.388" fill="white" transform="translate(108.689 234.761) rotate(-45)"/>
</clipPath>
<clipPath id="clip1_562_1226">
<rect width="131.388" height="131.388" fill="white" transform="translate(-33.1641 235.741) rotate(-45)"/>
</clipPath>
<clipPath id="clip2_562_1226">
<rect width="131.388" height="131.388" fill="white" transform="translate(-175.293 236.448) rotate(-45)"/>
</clipPath>
<clipPath id="clip3_562_1226">
<rect width="131.388" height="131.388" fill="white" transform="translate(-33.8711 93.6122) rotate(-45)"/>
</clipPath>
</defs>
</svg>
