<svg width="332" height="330" viewBox="0 0 332 330" fill="none" xmlns="http://www.w3.org/2000/svg">
<g clip-path="url(#clip0_736_1888)">
<path d="M300.227 99.8557L332 99.8557V-0.00159918L300.227 31.7712V99.8557Z" fill="#9500FF"/>
<path d="M300.227 131.629L332 99.8563H300.227V131.629Z" fill="#9814F6"/>
<path d="M300.227 31.7694L332 -0.00334977L232.143 -0.00334977L232.143 31.7694L300.227 31.7694Z" fill="#9500FF"/>
<path d="M232.142 -0.00334977L200.37 31.7694L232.142 31.7694V-0.00334977Z" fill="#8D03EF"/>
<path d="M232.142 99.8563L200.369 131.629L300.227 131.629L331.611 99.8563L232.142 99.8563Z" fill="#9814F6"/>
<path d="M232.142 99.8563L200.369 131.629L300.227 131.629L331.611 99.8563L232.142 99.8563Z" fill="url(#paint0_linear_736_1888)"/>
<path d="M232.929 99.6816L232.141 -0.00196417L200.369 31.7718L200.369 131.629L232.929 99.6816Z" fill="#8D03EF"/>
<path d="M232.929 99.6816L232.141 -0.00196417L200.369 31.7718L200.369 131.629L232.929 99.6816Z" fill="url(#paint1_linear_736_1888)"/>
<path d="M232.428 100.181L331.611 100.181V-0.00391513L232.428 -0.00391513L232.428 100.181Z" fill="#9500FF"/>
<path d="M232.428 100.181L331.611 100.181V-0.00391513L232.428 -0.00391513L232.428 100.181Z" fill="url(#paint2_linear_736_1888)"/>
</g>
<g clip-path="url(#clip1_736_1888)">
<path d="M99.8583 99.8557L131.631 99.8557L131.631 -0.00159918L99.8583 31.7712L99.8583 99.8557Z" fill="#9500FF"/>
<path d="M99.8583 131.629L131.631 99.8563H99.8583V131.629Z" fill="#9814F6"/>
<path d="M99.8583 31.7694L131.631 -0.00334977L31.7737 -0.00334977L31.7737 31.7694L99.8583 31.7694Z" fill="#9500FF"/>
<path d="M31.7733 -0.00334977L0.000563689 31.7694L31.7733 31.7694L31.7733 -0.00334977Z" fill="#8D03EF"/>
<path d="M31.7731 99.8563L0.000359422 131.629L99.8577 131.629L131.242 99.8563L31.7731 99.8563Z" fill="#9814F6"/>
<path d="M31.7731 99.8563L0.000359422 131.629L99.8577 131.629L131.242 99.8563L31.7731 99.8563Z" fill="url(#paint3_linear_736_1888)"/>
<path d="M32.56 99.6816L31.7724 -0.00196417L-0.00041845 31.7718L-0.00041845 131.629L32.56 99.6816Z" fill="#8D03EF"/>
<path d="M32.56 99.6816L31.7724 -0.00196417L-0.00041845 31.7718L-0.00041845 131.629L32.56 99.6816Z" fill="url(#paint4_linear_736_1888)"/>
<path d="M32.059 100.181L131.242 100.181L131.242 -0.00391513L32.059 -0.00391513L32.059 100.181Z" fill="#9500FF"/>
<path d="M32.059 100.181L131.242 100.181L131.242 -0.00391513L32.059 -0.00391513L32.059 100.181Z" fill="url(#paint5_linear_736_1888)"/>
</g>
<g clip-path="url(#clip2_736_1888)">
<path d="M199.737 199.348H231.51V99.4902L199.737 131.263V199.348Z" fill="#9500FF"/>
<path d="M199.737 231.121L231.51 199.348H199.737V231.121Z" fill="#9814F6"/>
<path d="M199.737 131.261L231.51 99.4884H131.653V131.261H199.737Z" fill="#9500FF"/>
<path d="M131.653 99.4884L99.8798 131.261H131.653V99.4884Z" fill="#8D03EF"/>
<path d="M131.652 199.348L99.8796 231.121H199.737L231.121 199.348H131.652Z" fill="#9814F6"/>
<path d="M131.652 199.348L99.8796 231.121H199.737L231.121 199.348H131.652Z" fill="url(#paint6_linear_736_1888)"/>
<path d="M132.439 199.173L131.652 99.4898L99.8788 131.264V231.121L132.439 199.173Z" fill="#8D03EF"/>
<path d="M132.439 199.173L131.652 99.4898L99.8788 131.264V231.121L132.439 199.173Z" fill="url(#paint7_linear_736_1888)"/>
<path d="M131.938 199.672H231.121V99.4879H131.938V199.672Z" fill="#9500FF"/>
<path d="M131.938 199.672H231.121V99.4879H131.938V199.672Z" fill="url(#paint8_linear_736_1888)"/>
</g>
<g clip-path="url(#clip3_736_1888)">
<path d="M300.227 298.221H332V198.364L300.227 230.136V298.221Z" fill="#9500FF"/>
<path d="M300.227 329.994L332 298.222H300.227V329.994Z" fill="#9814F6"/>
<path d="M300.227 230.135L332 198.362L232.143 198.362L232.143 230.135L300.227 230.135Z" fill="#9500FF"/>
<path d="M232.142 198.362L200.37 230.135H232.142V198.362Z" fill="#8D03EF"/>
<path d="M232.142 298.222L200.369 329.994L300.227 329.994L331.611 298.222L232.142 298.222Z" fill="#9814F6"/>
<path d="M232.142 298.222L200.369 329.994L300.227 329.994L331.611 298.222L232.142 298.222Z" fill="url(#paint9_linear_736_1888)"/>
<path d="M232.929 298.047L232.141 198.363L200.369 230.137L200.369 329.994L232.929 298.047Z" fill="#8D03EF"/>
<path d="M232.929 298.047L232.141 198.363L200.369 230.137L200.369 329.994L232.929 298.047Z" fill="url(#paint10_linear_736_1888)"/>
<path d="M232.428 298.546H331.611V198.361L232.428 198.361L232.428 298.546Z" fill="#9500FF"/>
<path d="M232.428 298.546H331.611V198.361L232.428 198.361L232.428 298.546Z" fill="url(#paint11_linear_736_1888)"/>
</g>
<defs>
<linearGradient id="paint0_linear_736_1888" x1="331.611" y1="99.8563" x2="266.165" y2="183.891" gradientUnits="userSpaceOnUse">
<stop stop-color="#9500FF"/>
<stop offset="1" stop-color="#35005B"/>
</linearGradient>
<linearGradient id="paint1_linear_736_1888" x1="232.141" y1="-0.00195508" x2="190.409" y2="3.12936" gradientUnits="userSpaceOnUse">
<stop stop-color="#9500FF"/>
<stop offset="1" stop-color="#35005B"/>
</linearGradient>
<linearGradient id="paint2_linear_736_1888" x1="331.611" y1="-0.00391026" x2="211.94" y2="36.8246" gradientUnits="userSpaceOnUse">
<stop stop-color="#9500FF"/>
<stop offset="1" stop-color="#35005B"/>
</linearGradient>
<linearGradient id="paint3_linear_736_1888" x1="131.242" y1="99.8563" x2="65.7961" y2="183.891" gradientUnits="userSpaceOnUse">
<stop stop-color="#9500FF"/>
<stop offset="1" stop-color="#35005B"/>
</linearGradient>
<linearGradient id="paint4_linear_736_1888" x1="31.7724" y1="-0.00195508" x2="-9.95947" y2="3.12936" gradientUnits="userSpaceOnUse">
<stop stop-color="#9500FF"/>
<stop offset="1" stop-color="#35005B"/>
</linearGradient>
<linearGradient id="paint5_linear_736_1888" x1="131.242" y1="-0.00391026" x2="11.5712" y2="36.8246" gradientUnits="userSpaceOnUse">
<stop stop-color="#9500FF"/>
<stop offset="1" stop-color="#35005B"/>
</linearGradient>
<linearGradient id="paint6_linear_736_1888" x1="231.121" y1="199.348" x2="165.675" y2="283.383" gradientUnits="userSpaceOnUse">
<stop stop-color="#9500FF"/>
<stop offset="1" stop-color="#35005B"/>
</linearGradient>
<linearGradient id="paint7_linear_736_1888" x1="131.652" y1="99.4898" x2="89.9198" y2="102.621" gradientUnits="userSpaceOnUse">
<stop stop-color="#9500FF"/>
<stop offset="1" stop-color="#35005B"/>
</linearGradient>
<linearGradient id="paint8_linear_736_1888" x1="231.121" y1="99.4879" x2="111.45" y2="136.316" gradientUnits="userSpaceOnUse">
<stop stop-color="#9500FF"/>
<stop offset="1" stop-color="#35005B"/>
</linearGradient>
<linearGradient id="paint9_linear_736_1888" x1="331.611" y1="298.222" x2="266.165" y2="382.256" gradientUnits="userSpaceOnUse">
<stop stop-color="#9500FF"/>
<stop offset="1" stop-color="#35005B"/>
</linearGradient>
<linearGradient id="paint10_linear_736_1888" x1="232.141" y1="198.363" x2="190.409" y2="201.495" gradientUnits="userSpaceOnUse">
<stop stop-color="#9500FF"/>
<stop offset="1" stop-color="#35005B"/>
</linearGradient>
<linearGradient id="paint11_linear_736_1888" x1="331.611" y1="198.361" x2="211.94" y2="235.19" gradientUnits="userSpaceOnUse">
<stop stop-color="#9500FF"/>
<stop offset="1" stop-color="#35005B"/>
</linearGradient>
<clipPath id="clip0_736_1888">
<rect width="131.388" height="131.388" fill="white" transform="matrix(-1.00184 0 0 -1.00184 332 131.629)"/>
</clipPath>
<clipPath id="clip1_736_1888">
<rect width="131.388" height="131.388" fill="white" transform="matrix(-1.00184 0 0 -1.00184 131.631 131.629)"/>
</clipPath>
<clipPath id="clip2_736_1888">
<rect width="131.388" height="131.388" fill="white" transform="matrix(-1.00184 0 0 -1.00184 231.51 231.121)"/>
</clipPath>
<clipPath id="clip3_736_1888">
<rect width="131.388" height="131.388" fill="white" transform="matrix(-1.00184 0 0 -1.00184 332 329.994)"/>
</clipPath>
</defs>
</svg>
