<svg width="300" height="342" viewBox="0 0 300 342" fill="none" xmlns="http://www.w3.org/2000/svg">
<g clip-path="url(#clip0_736_4571)">
<path d="M254.448 230.118L276.377 207.207L204.37 138.289L205.352 183.129L254.448 230.118Z" fill="#9500FF"/>
<path d="M277.361 252.048L276.378 207.208L254.449 230.12L277.361 252.048Z" fill="#9814F6"/>
<path d="M205.353 183.13L204.37 138.29L135.451 210.298L158.363 232.226L205.353 183.13Z" fill="#9500FF"/>
<path d="M135.452 210.294L136.435 255.134L158.363 232.223L135.452 210.294Z" fill="#8D03EF"/>
<path d="M207.46 279.216L208.443 324.056L277.361 252.049L276.11 207.489L207.46 279.216Z" fill="#9814F6"/>
<path d="M207.46 279.216L208.443 324.056L277.361 252.049L276.11 207.489L207.46 279.216Z" fill="url(#paint0_linear_736_4571)"/>
<path d="M207.877 278.525L135.451 210.295L136.435 255.135L208.442 324.054L207.877 278.525Z" fill="#8D03EF"/>
<path d="M207.877 278.525L135.451 210.295L136.435 255.135L208.442 324.054L207.877 278.525Z" fill="url(#paint1_linear_736_4571)"/>
<path d="M207.893 279.232L276.346 207.711L204.102 138.567L135.65 210.088L207.893 279.232Z" fill="#9500FF"/>
<path d="M207.893 279.232L276.346 207.711L204.102 138.567L135.65 210.088L207.893 279.232Z" fill="url(#paint2_linear_736_4571)"/>
</g>
<g clip-path="url(#clip1_736_4571)">
<path d="M109.962 91.8294L131.891 68.918L59.8832 -0.000342108L60.8661 44.8397L109.962 91.8294Z" fill="#9500FF"/>
<path d="M132.874 113.759L131.891 68.9191L109.963 91.8305L132.874 113.759Z" fill="#9814F6"/>
<path d="M60.8664 44.8411L59.8835 0.00113764L-9.03483 72.0085L13.8766 93.9371L60.8664 44.8411Z" fill="#9500FF"/>
<path d="M-9.03449 72.005L-8.0516 116.845L13.877 93.9336L-9.03449 72.005Z" fill="#8D03EF"/>
<path d="M62.9738 140.927L63.9567 185.767L132.875 113.76L131.624 69.2004L62.9738 140.927Z" fill="#9814F6"/>
<path d="M62.9738 140.927L63.9567 185.767L132.875 113.76L131.624 69.2004L62.9738 140.927Z" fill="url(#paint3_linear_736_4571)"/>
<path d="M63.3903 140.236L-9.03533 72.0056L-8.05177 116.846L63.9556 185.765L63.3903 140.236Z" fill="#8D03EF"/>
<path d="M63.3903 140.236L-9.03533 72.0056L-8.05177 116.846L63.9556 185.765L63.3903 140.236Z" fill="url(#paint4_linear_736_4571)"/>
<path d="M63.4067 140.943L131.859 69.4219L59.6161 0.277788L-8.83656 71.7986L63.4067 140.943Z" fill="#9500FF"/>
<path d="M63.4067 140.943L131.859 69.4219L59.6161 0.277788L-8.83656 71.7986L63.4067 140.943Z" fill="url(#paint5_linear_736_4571)"/>
</g>
<g clip-path="url(#clip2_736_4571)">
<path d="M113.319 232.505L135.248 209.594L63.2407 140.675L64.2235 185.515L113.319 232.505Z" fill="#9500FF"/>
<path d="M136.232 254.435L135.249 209.595L113.32 232.506L136.232 254.435Z" fill="#9814F6"/>
<path d="M64.2238 185.517L63.2409 140.677L-5.67741 212.684L17.234 234.613L64.2238 185.517Z" fill="#9500FF"/>
<path d="M-5.67706 212.681L-4.69417 257.521L17.2344 234.609L-5.67706 212.681Z" fill="#8D03EF"/>
<path d="M66.3312 281.603L67.3141 326.443L136.232 254.436L134.981 209.876L66.3312 281.603Z" fill="#9814F6"/>
<path d="M66.3312 281.603L67.3141 326.443L136.232 254.436L134.981 209.876L66.3312 281.603Z" fill="url(#paint6_linear_736_4571)"/>
<path d="M66.7477 280.912L-5.67791 212.681L-4.69435 257.522L67.313 326.44L66.7477 280.912Z" fill="#8D03EF"/>
<path d="M66.7477 280.912L-5.67791 212.681L-4.69435 257.522L67.313 326.44L66.7477 280.912Z" fill="url(#paint7_linear_736_4571)"/>
<path d="M66.7642 281.619L135.217 210.098L62.9735 140.954L-5.47914 212.474L66.7642 281.619Z" fill="#9500FF"/>
<path d="M66.7642 281.619L135.217 210.098L62.9735 140.954L-5.47914 212.474L66.7642 281.619Z" fill="url(#paint8_linear_736_4571)"/>
</g>
<g clip-path="url(#clip3_736_4571)">
<path d="M117.544 373.161L139.473 350.25L67.4653 281.332L68.4482 326.172L117.544 373.161Z" fill="#9500FF"/>
<path d="M68.4484 326.173L67.4655 281.333L-1.4528 353.341L21.4586 375.269L68.4484 326.173Z" fill="#9500FF"/>
<path d="M70.9888 422.275L139.441 350.754L67.1981 281.61L-1.25453 353.131L70.9888 422.275Z" fill="#9500FF"/>
<path d="M70.9888 422.275L139.441 350.754L67.1981 281.61L-1.25453 353.131L70.9888 422.275Z" fill="url(#paint9_linear_736_4571)"/>
</g>
<defs>
<linearGradient id="paint0_linear_736_4571" x1="276.11" y1="207.489" x2="291.539" y2="312.68" gradientUnits="userSpaceOnUse">
<stop stop-color="#9500FF"/>
<stop offset="1" stop-color="#35005B"/>
</linearGradient>
<linearGradient id="paint1_linear_736_4571" x1="135.451" y1="210.295" x2="108.907" y2="242.549" gradientUnits="userSpaceOnUse">
<stop stop-color="#9500FF"/>
<stop offset="1" stop-color="#35005B"/>
</linearGradient>
<linearGradient id="paint2_linear_736_4571" x1="204.102" y1="138.567" x2="148.067" y2="250.279" gradientUnits="userSpaceOnUse">
<stop stop-color="#9500FF"/>
<stop offset="1" stop-color="#35005B"/>
</linearGradient>
<linearGradient id="paint3_linear_736_4571" x1="131.624" y1="69.2004" x2="147.053" y2="174.391" gradientUnits="userSpaceOnUse">
<stop stop-color="#9500FF"/>
<stop offset="1" stop-color="#35005B"/>
</linearGradient>
<linearGradient id="paint4_linear_736_4571" x1="-9.03533" y1="72.0056" x2="-35.5793" y2="104.26" gradientUnits="userSpaceOnUse">
<stop stop-color="#9500FF"/>
<stop offset="1" stop-color="#35005B"/>
</linearGradient>
<linearGradient id="paint5_linear_736_4571" x1="59.6161" y1="0.27779" x2="3.58052" y2="111.99" gradientUnits="userSpaceOnUse">
<stop stop-color="#9500FF"/>
<stop offset="1" stop-color="#35005B"/>
</linearGradient>
<linearGradient id="paint6_linear_736_4571" x1="134.981" y1="209.876" x2="150.41" y2="315.067" gradientUnits="userSpaceOnUse">
<stop stop-color="#9500FF"/>
<stop offset="1" stop-color="#35005B"/>
</linearGradient>
<linearGradient id="paint7_linear_736_4571" x1="-5.6779" y1="212.681" x2="-32.2219" y2="244.935" gradientUnits="userSpaceOnUse">
<stop stop-color="#9500FF"/>
<stop offset="1" stop-color="#35005B"/>
</linearGradient>
<linearGradient id="paint8_linear_736_4571" x1="62.9735" y1="140.954" x2="6.93794" y2="252.666" gradientUnits="userSpaceOnUse">
<stop stop-color="#9500FF"/>
<stop offset="1" stop-color="#35005B"/>
</linearGradient>
<linearGradient id="paint9_linear_736_4571" x1="67.1981" y1="281.61" x2="11.1626" y2="393.322" gradientUnits="userSpaceOnUse">
<stop stop-color="#9500FF"/>
<stop offset="1" stop-color="#35005B"/>
</linearGradient>
<clipPath id="clip0_736_4571">
<rect width="131.388" height="131.388" fill="white" transform="translate(299.291 229.137) rotate(133.744)"/>
</clipPath>
<clipPath id="clip1_736_4571">
<rect width="131.388" height="131.388" fill="white" transform="translate(154.805 90.8477) rotate(133.744)"/>
</clipPath>
<clipPath id="clip2_736_4571">
<rect width="131.388" height="131.388" fill="white" transform="translate(158.162 231.523) rotate(133.744)"/>
</clipPath>
<clipPath id="clip3_736_4571">
<rect width="131.388" height="131.388" fill="white" transform="translate(162.387 372.18) rotate(133.744)"/>
</clipPath>
</defs>
</svg>
