<svg width="98" height="40" viewBox="0 0 98 40" fill="none" xmlns="http://www.w3.org/2000/svg">
<g clip-path="url(#clip0_3001_1480)">
<path d="M0.284595 24.4767L12.8093 8.32984C13.4931 7.4463 12.8651 6.16275 11.7483 6.16275H1.8926C1.15064 6.16275 0.547954 5.56022 0.547954 4.81845V1.46149C0.547954 0.719719 1.15064 0.117188 1.8926 0.117188H23.3311C24.073 0.117188 24.6757 0.719719 24.6757 1.46149V3.79567C24.6757 4.0944 24.5769 4.38301 24.3946 4.61845L11.923 20.7096C11.2393 21.5931 11.8673 22.8767 12.9866 22.8767H23.4425C24.1844 22.8767 24.7871 23.4792 24.7871 24.221V27.5779C24.7871 28.3197 24.1844 28.9222 23.4425 28.9222H1.34563C0.603664 28.9222 0.000976562 28.3197 0.000976562 27.5779V25.2969C0.000976562 24.9982 0.0997364 24.7096 0.282062 24.4742L0.284595 24.4767Z" fill="#383838"/>
<path d="M31.7412 10.1484H34.6888C35.9043 10.1484 36.8919 11.075 36.8919 12.2168V26.8548C36.8919 27.9965 35.9068 28.9231 34.6888 28.9231H31.7412C30.5257 28.9231 29.5381 27.9965 29.5381 26.8548V12.2168C29.5381 11.075 30.5231 10.1484 31.7412 10.1484Z" fill="#383838"/>
<path d="M35.7296 0.03125H30.7004C30.0585 0.03125 29.5381 0.551509 29.5381 1.19328V6.29707C29.5381 6.93884 30.0585 7.4591 30.7004 7.4591H35.7296C36.3715 7.4591 36.8919 6.93884 36.8919 6.29707V1.19328C36.8919 0.551509 36.3715 0.03125 35.7296 0.03125Z" fill="#0071E3"/>
<path d="M67.5526 12.3804V28.9272C67.5526 28.9272 67.5476 28.9399 67.54 28.9399H60.2115C60.2115 28.9399 60.1988 28.9348 60.1988 28.9272V13.0867C60.1988 10.8361 59.781 9.20318 58.9454 8.18799C58.0363 7.0766 56.5827 6.57533 54.5898 6.67407C54.3695 6.68419 54.1517 6.71458 53.9365 6.76774C51.8726 7.28166 50.4166 8.77534 49.5505 11.2893C49.0213 12.8158 48.7579 14.5931 48.7579 16.626V28.9272C48.7579 28.9272 48.7528 28.9399 48.7453 28.9399H41.4218C41.4218 28.9399 41.4092 28.9348 41.4092 28.9272V0.041157C41.4092 0.041157 41.4142 0.028498 41.4218 0.028498H47.2309C47.8741 0.028498 48.4059 0.532297 48.4388 1.1728L48.6034 4.22344C48.611 4.35002 48.7731 4.39812 48.844 4.29432C49.3657 3.5247 49.9709 2.87407 50.6546 2.34496C52.055 1.25382 54.4758 0.0234375 57.745 0.0234375C60.8294 0.0234375 63.2325 1.01078 64.9596 2.98799C66.6841 4.96521 67.5501 8.09938 67.5501 12.3829" fill="#383838"/>
<path d="M90.6143 1.16202C90.6143 2.1443 89.5128 2.69873 88.705 2.13924C88.2188 1.80253 87.7022 1.48861 87.1679 1.18734C85.651 0.32152 82.8807 0 81.1055 0C78.9961 0 77.1653 0.118986 75.5319 1.20506C73.8961 2.2962 72.6147 3.89367 71.693 6C70.7636 8.10633 70.3027 10.6076 70.3027 13.5139C70.3027 16.4203 70.7636 18.919 71.693 21.0253C72.6173 23.1316 73.8986 24.7291 75.5319 25.8203C77.1678 26.9063 79.0316 27.4506 81.1435 27.4506C82.9187 27.4506 85.0508 27.0304 86.5221 26.1013C87.9883 25.1772 89.3304 23.9696 90.1863 22.2253C90.3459 21.9038 90.4852 21.5696 90.6168 21.2253V23.9139C90.6168 25.7646 90.2269 27.3139 89.4494 28.5671C88.667 29.8203 87.6237 31.0101 86.317 31.5899C85.0129 32.1747 83.5036 32.4633 81.7968 32.4633C80.3078 32.4633 78.7707 32.2557 77.1957 31.838C76.0966 31.5443 74.8887 31.2228 73.7112 30.8329C72.9616 30.5848 72.1918 31.1494 72.1918 31.9367V37.0734C72.1918 37.5215 72.4501 37.9316 72.8553 38.1241C73.9872 38.6633 74.8887 38.8886 76.5119 39.2911C78.4365 39.762 80.3965 39.9975 82.3945 39.9975C85.1927 39.9975 87.7503 39.2354 90.0749 38.2532C92.397 37.276 94.5495 34.7089 95.7397 32.5139C96.9729 30.238 97.9175 27.6506 97.9175 24.3468V1.16202C97.9175 0.518986 97.3958 0 96.7551 0H91.7817C91.1385 0 90.6194 0.521518 90.6194 1.16202H90.6143ZM89.69 17.2962C89.0747 18.4785 88.2643 19.4329 87.2666 20.157C86.2663 20.881 85.1876 21.243 84.0253 21.243C82.8629 21.243 81.8551 20.9797 80.8928 20.4557C79.9331 19.9316 79.1632 19.0937 78.5783 17.9519C77.9984 16.8076 77.7097 15.3316 77.7097 13.5165C77.7097 11.7013 77.9984 10.2203 78.5783 9.07595C79.1632 7.93418 79.9331 7.10633 80.8928 6.6C81.8576 6.09367 82.8984 5.84051 84.0253 5.84051C85.1521 5.84051 86.2663 6.13924 87.2666 6.73671C88.2618 7.33418 89.0747 8.21772 89.69 9.37721C90.3054 10.5418 90.6143 11.9215 90.6143 13.519C90.6143 14.8582 90.3054 16.1215 89.69 17.2987V17.2962Z" fill="#383838"/>
</g>
<defs>
<clipPath id="clip0_3001_1480">
<rect width="98" height="40" fill="white"/>
</clipPath>
</defs>
</svg>
