<svg width="160" height="396" viewBox="0 0 160 396" fill="none" xmlns="http://www.w3.org/2000/svg">
<g clip-path="url(#clip0_736_4382)">
<path d="M163.214 143.841L166.446 188.575L187.197 164.592L163.214 143.841Z" fill="#9814F6"/>
<path d="M231.663 113.2L228.431 68.4656L163.214 143.842L166.7 188.282L231.663 113.2Z" fill="#9814F6"/>
<path d="M231.663 113.2L228.431 68.4656L163.214 143.842L166.7 188.282L231.663 113.2Z" fill="url(#paint0_linear_736_4382)"/>
</g>
<g clip-path="url(#clip1_736_4382)">
<path d="M45.4911 175.536L24.7402 199.52L100.116 264.737L96.8838 220.003L45.4911 175.536Z" fill="#9500FF"/>
<path d="M21.5068 154.786L24.7391 199.52L45.49 175.537L21.5068 154.786Z" fill="#9814F6"/>
<path d="M96.8837 220.005L100.116 264.739L165.333 189.363L141.35 168.612L96.8837 220.005Z" fill="#9500FF"/>
<path d="M165.333 189.36L162.101 144.626L141.35 168.609L165.333 189.36Z" fill="#8D03EF"/>
<path d="M89.9562 124.145L86.7239 79.4109L21.5067 154.787L24.993 199.227L89.9562 124.145Z" fill="#9814F6"/>
<path d="M89.9562 124.145L86.7239 79.4109L21.5067 154.787L24.993 199.227L89.9562 124.145Z" fill="url(#paint1_linear_736_4382)"/>
<path d="M89.5741 124.853L165.333 189.362L162.1 144.628L86.7243 79.4105L89.5741 124.853Z" fill="#8D03EF"/>
<path d="M89.5741 124.853L165.333 189.362L162.1 144.628L86.7243 79.4105L89.5741 124.853Z" fill="url(#paint2_linear_736_4382)"/>
<path d="M89.5226 124.149L24.7461 199.016L100.369 264.446L165.145 189.58L89.5226 124.149Z" fill="#9500FF"/>
<path d="M89.5226 124.149L24.7461 199.016L100.369 264.446L165.145 189.58L89.5226 124.149Z" fill="url(#paint3_linear_736_4382)"/>
</g>
<g clip-path="url(#clip2_736_4382)">
<path d="M176.251 22.88L155.5 46.8633L230.876 112.08L227.644 67.3463L176.251 22.88Z" fill="#9500FF"/>
<path d="M152.267 2.13005L155.499 46.8642L176.25 22.881L152.267 2.13005Z" fill="#9814F6"/>
<path d="M220.716 -28.5112L217.484 -73.2453L152.266 2.13058L155.753 46.5712L220.716 -28.5112Z" fill="#9814F6"/>
<path d="M220.716 -28.5112L217.484 -73.2453L152.266 2.13058L155.753 46.5712L220.716 -28.5112Z" fill="url(#paint4_linear_736_4382)"/>
<path d="M220.282 -28.5072L155.506 46.3594L231.129 111.79L295.905 36.9236L220.282 -28.5072Z" fill="#9500FF"/>
<path d="M220.282 -28.5072L155.506 46.3594L231.129 111.79L295.905 36.9236L220.282 -28.5072Z" fill="url(#paint5_linear_736_4382)"/>
</g>
<defs>
<linearGradient id="paint0_linear_736_4382" x1="166.7" y1="188.282" x2="146.011" y2="83.9983" gradientUnits="userSpaceOnUse">
<stop stop-color="#9500FF"/>
<stop offset="1" stop-color="#35005B"/>
</linearGradient>
<linearGradient id="paint1_linear_736_4382" x1="24.993" y1="199.227" x2="4.30348" y2="94.9436" gradientUnits="userSpaceOnUse">
<stop stop-color="#9500FF"/>
<stop offset="1" stop-color="#35005B"/>
</linearGradient>
<linearGradient id="paint2_linear_736_4382" x1="165.333" y1="189.362" x2="190.225" y2="155.817" gradientUnits="userSpaceOnUse">
<stop stop-color="#9500FF"/>
<stop offset="1" stop-color="#35005B"/>
</linearGradient>
<linearGradient id="paint3_linear_736_4382" x1="100.369" y1="264.446" x2="150.727" y2="150.062" gradientUnits="userSpaceOnUse">
<stop stop-color="#9500FF"/>
<stop offset="1" stop-color="#35005B"/>
</linearGradient>
<linearGradient id="paint4_linear_736_4382" x1="155.753" y1="46.5712" x2="135.063" y2="-57.7126" gradientUnits="userSpaceOnUse">
<stop stop-color="#9500FF"/>
<stop offset="1" stop-color="#35005B"/>
</linearGradient>
<linearGradient id="paint5_linear_736_4382" x1="231.129" y1="111.79" x2="281.486" y2="-2.59423" gradientUnits="userSpaceOnUse">
<stop stop-color="#9500FF"/>
<stop offset="1" stop-color="#35005B"/>
</linearGradient>
<clipPath id="clip0_736_4382">
<rect width="131.388" height="131.388" fill="white" transform="translate(142.463 167.824) rotate(-49.1328)"/>
</clipPath>
<clipPath id="clip1_736_4382">
<rect width="131.388" height="131.388" fill="white" transform="translate(0.755859 178.77) rotate(-49.1328)"/>
</clipPath>
<clipPath id="clip2_736_4382">
<rect width="131.388" height="131.388" fill="white" transform="translate(131.516 26.1133) rotate(-49.1328)"/>
</clipPath>
</defs>
</svg>
